<?xml version="1.0" encoding="UTF-8"?>
<svg id="höllental." xmlns="http://www.w3.org/2000/svg" viewBox="0 0 613.65245 121.33494">
  <defs>
    <style>
      .cls-1 {
        fill: #1d1d1b;
      }
    </style>
  </defs>
  <rect id="Punkt" class="cls-1" x="590.55234" y="96.7707" width="23.10012" height="22.61211"/>
  <polygon id="l" class="cls-1" points="555.90353 0 555.90353 119.38261 575.42275 119.38261 575.42275 7.8085 555.90353 0"/>
  <path id="a" class="cls-1" d="M522.20661,86.03401c0,12.85149-8.13385,21.47337-20.17195,21.47337-8.62187,0-13.82753-4.39228-13.82753-11.22472,0-6.99512,4.8803-10.89936,15.61698-12.68881l18.3825-2.76551v5.20567Zm21.63608,33.3488c-1.62681-5.6937-2.44018-14.1529-2.44018-25.21494v-24.23888c0-23.58817-10.73668-33.83683-34.81288-33.83683-20.98533,0-34.6502,10.73668-35.95162,28.14313h20.00927c.65069-9.27259,6.3444-14.31558,15.94235-14.31558,10.41132,0,15.12897,5.20567,15.12897,17.40645v2.1148l-17.24376,2.1148c-12.8515,1.78945-20.66,3.90425-26.51638,7.32047-6.50708,4.06693-9.92328,10.57401-9.92328,18.38251,0,14.47826,11.06202,24.07621,27.81777,24.07621,13.01415,0,23.26283-6.01905,27.16704-15.94235,.16271,5.04299,.65072,9.9233,1.30145,13.99023h19.52126Z"/>
  <path id="t" class="cls-1" d="M406.52126,52.19718h14.64093v41.97068c0,16.43038,6.50708,26.67904,26.02834,26.67904,5.04298,0,8.62187-.48803,13.33952-1.46409v-16.43039c-2.60283,.48803-4.71765,.97607-7.97117,.97607-8.13385,0-11.87545-4.2296-11.87545-12.85149V52.19718h19.84662v-14.1529h-19.84662V9.73847l-19.52123,7.80849v20.49732h-14.64093v14.1529Z"/>
  <path id="n" class="cls-1" d="M327.78679,119.38281h19.52123v-43.10942c0-15.45432,6.83244-24.56423,18.21985-24.56423,10.24864,0,15.29162,6.3444,15.29162,19.19589v48.47777h19.52126v-50.42989c0-21.79873-9.27259-32.86077-27.00439-32.86077-12.52614,0-21.47337,5.85637-27.00439,17.7318v-15.77967h-18.54518V119.38281Z"/>
  <path id="e" class="cls-1" d="M296.71709,70.74237h-37.90376c.32535-13.5022,7.32045-21.63605,19.68391-21.63605,11.55009,0,18.21985,6.99511,18.21985,20.33463v1.30142Zm19.1959,12.85149v-8.94724c0-24.88959-13.50223-38.55447-37.09038-38.55447-24.23888,0-38.87981,16.59306-38.87981,43.43478,0,26.67904,14.96629,41.80801,39.85587,41.80801,16.59307,0,29.44454-7.8085,35.46361-21.9614l-14.96629-6.83244c-3.74157,8.78456-10.574,13.5022-19.84659,13.5022-12.8515,0-21.47337-8.78456-21.63605-22.44944h57.09966Z"/>
  <rect id="l-2" data-name="l" class="cls-1" x="209.52198" y="1.44193" width="19.52125" height="117.94088"/>
  <rect id="l-3" data-name="l" class="cls-1" x="173.71269" y="1.44193" width="19.52125" height="117.94088"/>
  <g id="_ö" data-name="ö">
    <path id="_ö-2" data-name="ö" class="cls-1" d="M142.64258,78.55086c0,18.54519-7.32047,27.98046-19.8466,27.98046s-20.00928-9.43527-20.00928-27.98046,7.48315-27.6551,20.00928-27.6551,19.8466,9.10992,19.8466,27.6551m20.00929,0c0-27.16707-16.43039-42.45871-39.85589-42.45871s-39.85588,15.29165-39.85588,42.45871c0,27.32975,16.43038,42.78407,39.85588,42.78407s39.85589-15.45432,39.85589-42.78407"/>
    <polygon id="_ö-3" data-name="ö" class="cls-1" points="157.44558 17.70883 157.44558 1.44112 112.55078 1.44112 105.63903 1.44112 88.14719 1.44112 88.14719 17.70883 105.63903 17.70883 112.55078 17.70883 157.44558 17.70883"/>
  </g>
  <path class="cls-1" d="M0,119.38281H19.52125v-43.10942c0-15.617,6.66976-24.56423,18.38251-24.56423,9.9233,0,15.12897,6.3444,15.12897,18.70786v48.9658h19.52125v-50.59257c0-21.47337-9.27259-32.69809-26.84172-32.69809-12.36346,0-21.3107,5.6937-26.19101,16.91842V.00021L0,7.80871V119.38281Z"/>
</svg>