<?xml version="1.0" encoding="UTF-8"?>
<svg id="Ebene_2" data-name="Ebene 2" xmlns="http://www.w3.org/2000/svg" viewBox="0 0 1079.37 193.42">
  <defs>
    <style>
      .cls-1 {
        fill: #fff;
      }
    </style>
  </defs>
  <g id="Ebene_1-2" data-name="Ebene 1">
    <g>
      <rect class="cls-1" x="1056.27" y="96.77" width="23.1" height="22.61"/>
      <polygon class="cls-1" points="1021.62 119.38 1041.14 119.38 1041.14 7.81 1021.62 0 1021.62 119.38"/>
      <path class="cls-1" d="M1007.12,69.93c0-23.59-10.74-33.84-34.81-33.84-20.99,0-34.65,10.74-35.95,28.14h20.01c.65-9.27,6.34-14.32,15.94-14.32,10.41,0,15.13,5.21,15.13,17.41v2.11l-17.24,2.11c-12.85,1.79-20.66,3.9-26.52,7.32-6.51,4.07-9.92,10.57-9.92,18.38,0,14.48,11.06,24.08,27.82,24.08,13.01,0,23.26-6.02,27.17-15.94.16,5.04.65,9.92,1.3,13.99h19.52c-1.63-5.69-2.44-14.15-2.44-25.21v-24.24ZM987.92,86.03c0,12.85-8.13,21.47-20.17,21.47-8.62,0-13.83-4.39-13.83-11.22s4.88-10.9,15.62-12.69l18.38-2.77v5.21Z"/>
      <path class="cls-1" d="M906.4,9.74l-19.52,7.81v20.5h-14.64v14.15h14.64v41.97c0,16.43,6.51,26.68,26.03,26.68,5.04,0,8.62-.49,13.34-1.46v-16.43c-2.6.49-4.72.98-7.97.98-8.13,0-11.88-4.23-11.88-12.85v-38.88h19.85v-14.15h-19.85V9.74Z"/>
      <path class="cls-1" d="M839.05,36.09c-12.53,0-21.47,5.86-27,17.73v-15.78h-18.55v81.34h19.52v-43.11c0-15.45,6.83-24.56,18.22-24.56,10.25,0,15.29,6.34,15.29,19.2v48.48h19.52v-50.43c0-21.8-9.27-32.86-27-32.86Z"/>
      <path class="cls-1" d="M744.54,36.09c-24.24,0-38.88,16.59-38.88,43.43s14.97,41.81,39.86,41.81c16.59,0,29.44-7.81,35.46-21.96l-14.97-6.83c-3.74,8.78-10.57,13.5-19.85,13.5-12.85,0-21.47-8.78-21.64-22.45h57.1v-8.95c0-24.89-13.5-38.55-37.09-38.55ZM762.43,70.74h-37.9c.33-13.5,7.32-21.64,19.68-21.64,11.55,0,18.22,7,18.22,20.33v1.3Z"/>
      <rect class="cls-1" x="675.24" y="1.44" width="19.52" height="117.94"/>
      <rect class="cls-1" x="639.43" y="1.44" width="19.52" height="117.94"/>
      <path class="cls-1" d="M588.51,36.09c-23.43,0-39.86,15.29-39.86,42.46s16.43,42.78,39.86,42.78,39.86-15.45,39.86-42.78-16.43-42.46-39.86-42.46ZM588.51,106.53c-12.53,0-20.01-9.44-20.01-27.98s7.48-27.66,20.01-27.66,19.85,9.11,19.85,27.66-7.32,27.98-19.85,27.98Z"/>
      <polygon class="cls-1" points="578.26 17.71 623.16 17.71 623.16 1.44 578.26 1.44 571.35 1.44 553.86 1.44 553.86 17.71 571.35 17.71 578.26 17.71"/>
      <path class="cls-1" d="M538.27,119.38v-50.59c0-21.47-9.27-32.7-26.84-32.7-12.36,0-21.31,5.69-26.19,16.92V0l-19.52,7.81v111.57h19.52v-43.11c0-15.62,6.67-24.56,18.38-24.56,9.92,0,15.13,6.34,15.13,18.71v48.97h19.52Z"/>
    </g>
    <g>
      <path class="cls-1" d="M35.77,50.24c10.73,0,17.89,4.55,21.79,11.87l13.66-7.32c-3.9-11.71-17.07-18.7-34.31-18.7-20.65,0-33.17,10.41-33.17,25.04,0,13.01,7.97,20.98,23.25,23.74l14.47,2.6c7.97,1.3,11.54,3.58,11.54,9.43s-5.2,10.08-15.12,10.08c-11.54,0-19.67-5.2-23.41-14.31l-14.47,6.5c5.04,14.31,18.86,22.11,37.4,22.11,21.3,0,33.33-10.41,33.33-25.69,0-12.84-6.67-20.65-22.44-23.41l-15.93-2.93c-7.15-1.3-10.73-3.74-10.73-9.27,0-6.34,5.04-9.76,14.15-9.76Z"/>
      <path class="cls-1" d="M109.36,9.75l-19.51,7.8v20.49h-14.63v14.15h14.63v41.95c0,16.42,6.5,26.67,26.02,26.67,5.04,0,8.62-.49,13.33-1.46v-16.42c-2.6.49-4.72.97-7.97.97-8.13,0-11.87-4.23-11.87-12.84v-38.86h19.84v-14.15h-19.84V9.75Z"/>
      <path class="cls-1" d="M188.55,83.08c0,13.66-7.15,22.6-17.89,22.6-9.43,0-14.31-6.5-14.31-18.37v-49.27h-19.51v52.19c0,19.02,7.64,31.06,27.48,31.06,11.71,0,21.46-6.99,25.37-17.07v15.12h18.54V38.04h-19.67v45.04Z"/>
      <path class="cls-1" d="M277.44,49.59c-4.55-9.11-12.68-13.5-23.41-13.5-20.32,0-34.31,17.24-34.31,42.76s13.17,42.44,32.84,42.44c12.19,0,21.46-6.18,26.02-16.58v14.63h18.37V1.46h-19.51v48.13ZM277.93,81.45c0,15.28-7.32,24.88-18.7,24.88s-19.19-10.41-19.19-27.8,7.15-27.48,19.02-27.48,18.86,9.27,18.86,25.2v5.2Z"/>
      <rect class="cls-1" x="313.55" y="38.04" width="19.51" height="81.3"/>
      <rect class="cls-1" x="312.74" y="4.22" width="21.14" height="20.32"/>
      <path class="cls-1" d="M383.71,36.09c-23.41,0-39.84,15.28-39.84,42.44s16.42,42.76,39.84,42.76,39.84-15.45,39.84-42.76-16.42-42.44-39.84-42.44ZM383.71,106.49c-12.52,0-20-9.43-20-27.97s7.48-27.64,20-27.64,19.84,9.11,19.84,27.64-7.32,27.97-19.84,27.97Z"/>
    </g>
    <g>
      <rect class="cls-1" x="466.05" y="164.75" width="4.76" height="28"/>
      <rect class="cls-1" x="465.72" y="153.55" width="5.43" height="5.99"/>
      <path class="cls-1" d="M500.67,164.08c-4.42,0-7.5,2.02-9.35,6.22v-5.54h-4.48v28h4.76v-14.62c0-6.22,2.86-9.97,7.5-9.97,4.09,0,6.16,2.52,6.16,7.45v17.14h4.76v-17.42c0-7.45-3.19-11.26-9.35-11.26Z"/>
      <path class="cls-1" d="M531.74,155.4l-4.76,2.02v7.34h-5.21v3.92h5.21v15.68c0,5.21,1.57,8.9,7.62,8.9,1.79,0,2.91-.17,4.14-.5v-4.37c-.95.22-1.68.39-2.91.39-2.86,0-4.09-1.4-4.09-4.59v-15.51h7v-3.92h-7v-9.35Z"/>
      <path class="cls-1" d="M562.38,164.08c-8.01,0-12.71,5.66-12.71,15.01s4.76,14.34,12.77,14.34c5.66,0,9.74-2.69,11.7-7.78l-3.92-1.74c-1.23,3.42-3.86,5.32-7.45,5.32-4.98,0-8.29-3.58-8.34-9.07h19.88v-3.36c0-8.4-4.37-12.71-11.93-12.71ZM569.49,176.28h-15.06c.11-5.26,2.91-8.46,7.84-8.46,4.59,0,7.22,2.69,7.22,7.84v.62Z"/>
      <path class="cls-1" d="M593.24,171.13v-6.38h-4.42v28h4.76v-11.98c0-3.36.11-7.11,2.8-9.8,1.34-1.34,3.25-2.18,6.16-2.18h.22v-4.65c-.34-.06-.67-.06-1.01-.06-4.26,0-7.17,3.14-8.51,7.06Z"/>
      <rect class="cls-1" x="615.18" y="153.55" width="5.43" height="5.99"/>
      <rect class="cls-1" x="615.52" y="164.75" width="4.76" height="28"/>
      <path class="cls-1" d="M647.36,164.08c-7.9,0-13.05,5.54-13.05,14.67s5.15,14.67,13.05,14.67,13.05-5.54,13.05-14.67-5.15-14.67-13.05-14.67ZM647.36,189.28c-5.04,0-8.01-3.58-8.01-10.53s2.97-10.53,8.01-10.53,8.01,3.58,8.01,10.53-2.97,10.53-8.01,10.53Z"/>
      <path class="cls-1" d="M679.05,171.13v-6.38h-4.42v28h4.76v-11.98c0-3.36.11-7.11,2.8-9.8,1.34-1.34,3.25-2.18,6.16-2.18h.22v-4.65c-.34-.06-.67-.06-1.01-.06-4.26,0-7.17,3.14-8.51,7.06Z"/>
      <path class="cls-1" d="M714.71,177.24l-5.43-1.01c-2.74-.5-4.31-1.62-4.31-3.98,0-2.74,2.18-4.31,5.77-4.31,3.81,0,5.99,1.96,6.61,4.76l4.7-1.06c-.56-4.7-4.82-7.56-11.09-7.56-6.61,0-10.64,3.58-10.64,8.4,0,4.26,2.69,6.94,7.45,7.84l5.49,1.01c2.52.45,4.03,1.46,4.03,3.92s-2.07,4.26-5.82,4.26c-4.09,0-6.72-2.02-7.39-5.54l-4.82.84c.95,5.54,5.43,8.62,12.04,8.62s10.7-3.53,10.7-8.57c0-4.09-2.24-6.66-7.28-7.62Z"/>
    </g>
  </g>
</svg>